<?xml version="1.0" encoding="UTF-8" standalone="no"?>
<!-- Created with Inkscape (http://www.inkscape.org/) -->

<svg
   version="1.1"
   id="svg2"
   width="394.02667"
   height="81.639999"
   viewBox="0 0 394.02667 81.639999"
   sodipodi:docname="RENNES MeÌtropole_blanc.eps"
   xmlns:inkscape="http://www.inkscape.org/namespaces/inkscape"
   xmlns:sodipodi="http://sodipodi.sourceforge.net/DTD/sodipodi-0.dtd"
   xmlns="http://www.w3.org/2000/svg"
   xmlns:svg="http://www.w3.org/2000/svg">
  <defs
     id="defs6" />
  <sodipodi:namedview
     id="namedview4"
     pagecolor="#ffffff"
     bordercolor="#000000"
     borderopacity="0.25"
     inkscape:showpageshadow="2"
     inkscape:pageopacity="0.0"
     inkscape:pagecheckerboard="0"
     inkscape:deskcolor="#d1d1d1" />
  <g
     id="g8"
     inkscape:groupmode="layer"
     inkscape:label="ink_ext_XXXXXX"
     transform="matrix(1.3333333,0,0,-1.3333333,0,81.64)">
    <g
       id="g10"
       transform="scale(0.1)">
      <path
         d="m 770.668,438.324 c 45.219,14.621 59.5,49.301 59.5,81.942 0,51.679 -36.039,82.621 -98.262,82.621 H 625.828 v -255 h 44.879 v 83.301 h 47.262 5.097 l 17.34,-27.883 c 30.262,-48.617 42.5,-57.117 89.762,-57.117 v 42.839 c -24.82,0 -33.66,7.821 -53.383,39.438 z m -43.859,122.742 c 36.039,0 55.418,-17.339 55.418,-45.902 0,-26.18 -15.981,-43.859 -50.321,-43.859 h -61.199 v 89.761 z m 366.651,-75.14 c 0,78.539 -43.52,121.379 -110.843,121.379 -75.82,0 -118.66,-53.039 -118.66,-131.918 0,-80.242 42.84,-131.922 121.379,-131.922 55.764,0 92.144,26.519 104.724,70.383 l -43.18,13.937 c -8.84,-32.301 -35.36,-41.48 -61.884,-41.48 -48.961,0 -71.058,30.601 -74.461,72.082 h 182.925 z m -182.241,11.219 c 4.758,40.121 28.898,68.339 70.719,68.339 38.762,0 64.602,-23.796 64.602,-68.339 z M 1185.63,347.887 v 185.98 c 24.82,-23.801 96.22,-127.84 124.1,-185.98 h 46.24 v 255 h -44.88 v -171.02 c -32.98,59.16 -79.22,119.68 -127.5,171.02 h -42.84 v -255 z m 274.59,0 v 185.98 c 24.82,-23.801 96.22,-127.84 124.1,-185.98 h 46.24 v 255 h -44.88 v -171.02 c -32.98,59.16 -79.22,119.68 -127.5,171.02 h -42.84 v -255 z m 446.55,138.039 c 0,78.539 -43.52,121.379 -110.84,121.379 -75.82,0 -118.66,-53.039 -118.66,-131.918 0,-80.242 42.84,-131.922 121.38,-131.922 55.76,0 92.14,26.519 104.72,70.383 l -43.18,13.937 c -8.84,-32.301 -35.36,-41.48 -61.88,-41.48 -48.96,0 -71.06,30.601 -74.46,72.082 h 182.92 z m -182.24,11.219 c 4.76,40.121 28.9,68.339 70.72,68.339 38.76,0 64.6,-23.796 64.6,-68.339 z m 210.26,-82.957 c 13.26,-43.524 50.32,-71.063 109.48,-71.063 60.18,0 101.32,27.883 101.32,79.223 0,41.816 -26.18,68 -98.6,78.199 -40.8,5.777 -54.74,15.98 -54.74,35.699 0,21.762 17.68,31.961 44.88,31.961 32.98,0 50.66,-14.621 58.48,-44.199 l 42.5,11.898 c -11.22,45.559 -44.88,71.739 -100.98,71.739 -55.42,0 -91.12,-26.18 -91.12,-75.137 0,-35.363 18.02,-63.922 90.44,-74.121 46.58,-6.461 62.22,-17 62.22,-39.442 0,-23.8 -18.7,-35.699 -50.66,-35.699 -37.74,0 -60.18,16.66 -71.06,46.918 l -42.16,-15.976"
         style="fill:#ffffff;fill-opacity:1;fill-rule:nonzero;stroke:none"
         id="path12" />
      <path
         d="m 895.98,262.031 h -43.859 c -28.562,-59.16 -55.422,-118.32 -76.5,-185.9802 h -3.402 c -21.078,67.6602 -47.938,126.8202 -76.5,185.9802 h -43.86 L 621.262,7.03125 h 44.539 L 686.199,182.813 C 710,129.094 731.078,73.6719 749.102,15.1914 h 49.636 C 816.762,73.6719 837.84,129.094 861.641,182.813 L 882.039,7.03125 h 44.539 z m 231.88,83.641 -90.78,-32.301 10.54,-30.598 90.78,30.598 z m 59.5,-200.602 c 0,78.543 -43.52,121.383 -110.84,121.383 -75.82,0 -118.661,-53.043 -118.661,-131.922 0,-80.238 42.841,-131.91772 121.381,-131.91772 55.76,0 92.14,26.51952 104.72,70.37892 l -43.18,13.9414 c -8.84,-32.3008 -35.36,-41.4805 -61.88,-41.4805 -48.96,0 -71.06,30.5977 -74.46,72.0779 h 182.92 z m -182.24,11.223 c 4.76,40.117 28.9,68.34 70.72,68.34 38.76,0 64.6,-23.801 64.6,-68.34 z M 1335.6,7.03125 V 219.871 h 90.44 v 42.16 h -222.02 v -42.16 h 86.7 V 7.03125 Z m 271.45,90.44145 c 45.22,14.6213 59.5,49.3003 59.5,81.9373 0,51.684 -36.04,82.621 -98.26,82.621 H 1462.21 V 7.03125 h 44.88 V 90.332 h 47.26 5.1 l 17.34,-27.8789 c 30.26,-48.6211 42.5,-57.12107 89.76,-57.12107 V 48.1719 c -24.82,0 -33.66,7.8203 -53.38,39.4414 z m -43.86,122.7383 c 36.04,0 55.42,-17.34 55.42,-45.898 0,-26.18 -15.98,-43.86 -50.32,-43.86 h -61.2 v 89.758 z M 1827.26,2.61328 c 76.5,0 127.84,51.67972 127.84,132.25772 0,77.859 -51.34,131.582 -127.84,131.582 -76.5,0 -127.84,-53.723 -127.84,-131.582 0,-80.578 51.34,-132.25772 127.84,-132.25772 m 0,42.83982 c -47.94,0 -80.92,35.0196 -80.92,89.0779 0,52.02 32.98,89.082 80.92,89.082 48.28,0 80.92,-37.062 80.92,-89.082 0,-54.0583 -32.64,-89.0779 -80.92,-89.0779 m 173.3,216.5779 V 7.03125 h 44.88 V 83.8711 h 55.08 c 75.14,0 107.1,36.0389 107.1,89.0819 0,53.039 -31.96,89.078 -107.1,89.078 z m 44.88,-136 v 93.84 h 59.16 c 36.04,0 56.1,-16.32 56.1,-46.918 0,-30.601 -20.06,-46.922 -56.1,-46.922 z M 2364.7,2.61328 c 76.5,0 127.84,51.67972 127.84,132.25772 0,77.859 -51.34,131.582 -127.84,131.582 -76.5,0 -127.84,-53.723 -127.84,-131.582 0,-80.578 51.34,-132.25772 127.84,-132.25772 m 0,42.83982 c -47.94,0 -80.92,35.0196 -80.92,89.0779 0,52.02 32.98,89.082 80.92,89.082 48.28,0 80.92,-37.062 80.92,-89.082 0,-54.0583 -32.64,-89.0779 -80.92,-89.0779 m 218.17,216.5779 h -44.88 V 7.03125 h 168.98 V 49.1914 h -124.1 z M 2955.2,145.07 c 0,78.543 -43.52,121.383 -110.84,121.383 -75.82,0 -118.66,-53.043 -118.66,-131.922 0,-80.238 42.84,-131.91772 121.38,-131.91772 55.76,0 92.14,26.51952 104.72,70.37892 l -43.18,13.9414 c -8.84,-32.3008 -35.36,-41.4805 -61.88,-41.4805 -48.96,0 -71.06,30.5977 -74.46,72.0779 h 182.92 z m -182.24,11.223 c 4.76,40.117 28.9,68.34 70.72,68.34 38.76,0 64.6,-23.801 64.6,-68.34 h -135.32"
         style="fill:#ffffff;fill-opacity:1;fill-rule:nonzero;stroke:none"
         id="path14" />
      <path
         d="M 211.148,612.281 C 141.031,612.281 69.3281,597.383 0,574.641 v -50.18 c 75.6289,28.23 148.121,40.769 211.148,40.769 143.403,0 226.911,-65.078 226.911,-167.789 0,-60.378 -26,-111.347 -74.848,-145.058 10.25,-10.981 21.277,-24.313 29.937,-35.289 61.461,41.558 93.762,108.988 93.762,180.347 0,129.372 -105.582,214.84 -275.762,214.84 M 395.52,391.953 c 0,80.758 -63.821,134.86 -189.891,134.86 C 139.449,526.813 60.6602,511.91 0,486.82 v -50.179 c 55.9414,25.089 137.09,43.132 205.629,43.132 91.402,0 141.043,-30.582 141.043,-89.39 0,-34.5 -17.344,-64.301 -48.063,-83.121 13.391,-7.051 26.782,-18.032 37.813,-28.219 37.816,25.09 59.098,66.641 59.098,112.91 m -260.008,47.039 c -14.973,-2.351 -33.883,-5.488 -48.8518,-9.41 V 7.73047 H 135.512 Z M 0,7.73047 H 48.8398 V 416.254 C 33.8711,411.551 14.9688,405.281 0,398.223 Z M 321.449,173.184 c 52.789,-72.922 81.16,-98.0121 154.43,-91.7426 v 47.0506 c -53.578,-6.281 -79.578,21.168 -116.609,73.699 -45.692,64.301 -96.911,98.801 -182.79,103.5 v -47.828 c 61.461,-2.351 100.848,-23.519 144.969,-84.679 M 290.73,148.871 c -37.031,52.539 -62.25,69 -114.25,76.852 v -48.621 c 36.25,-5.489 52.79,-23.52 76.43,-57.239 C 315.148,31.2617 349.82,-5.59766 475.879,0.683594 V 47.7227 C 378.18,41.4531 345.879,71.2539 290.73,148.871"
         style="fill:#ffffff;fill-opacity:1;fill-rule:nonzero;stroke:none"
         id="path16" />
    </g>
  </g>
</svg>
